<?xml version="1.0" encoding="UTF-8" standalone="no"?>
<!DOCTYPE svg PUBLIC "-//W3C//DTD SVG 1.1//EN"
 "http://www.w3.org/Graphics/SVG/1.1/DTD/svg11.dtd">
<!-- Generated by graphviz version 2.38.0 (20140413.2041)
 -->
<!-- Title: %3 Pages: 1 -->
<svg width="1008pt" height="661pt"
 viewBox="0.00 0.00 1008.00 661.20" xmlns="http://www.w3.org/2000/svg" xmlns:xlink="http://www.w3.org/1999/xlink">
<g id="graph0" class="graph" transform="scale(0.476781 0.476781) rotate(0) translate(4 1382.8)">
<title>%3</title>
<polygon fill="white" stroke="none" points="-4,4 -4,-1382.8 2110.18,-1382.8 2110.18,4 -4,4"/>
<!-- github.com/go&#45;modules&#45;by&#45;example&#45;staging/\nlistmodwhygraph -->
<g id="node1" class="node"><title>github.com/go&#45;modules&#45;by&#45;example&#45;staging/\nlistmodwhygraph</title>
<polygon fill="#e94762" stroke="none" points="1354.18,-439.728 794.183,-439.728 794.183,-379.728 1354.18,-379.728 1354.18,-439.728"/>
<text text-anchor="middle" x="1074.18" y="-416.528" font-family="Helvetica,sans-Serif" font-size="24.00">github.com/go&#45;modules&#45;by&#45;example&#45;staging/</text>
<text text-anchor="middle" x="1074.18" y="-390.528" font-family="Helvetica,sans-Serif" font-size="24.00">listmodwhygraph</text>
</g>
<!-- github.com/go&#45;modules&#45;by&#45;example&#45;staging/\nincomplete -->
<g id="node2" class="node"><title>github.com/go&#45;modules&#45;by&#45;example&#45;staging/\nincomplete</title>
<text text-anchor="middle" x="973.172" y="-141.089" font-family="Helvetica,sans-Serif" font-size="24.00">github.com/go&#45;modules&#45;by&#45;example&#45;staging/</text>
<text text-anchor="middle" x="973.172" y="-115.089" font-family="Helvetica,sans-Serif" font-size="24.00">incomplete</text>
</g>
<!-- github.com/go&#45;modules&#45;by&#45;example&#45;staging/\nlistmodwhygraph&#45;&gt;github.com/go&#45;modules&#45;by&#45;example&#45;staging/\nincomplete -->
<g id="edge1" class="edge"><title>github.com/go&#45;modules&#45;by&#45;example&#45;staging/\nlistmodwhygraph&#45;&gt;github.com/go&#45;modules&#45;by&#45;example&#45;staging/\nincomplete</title>
<path fill="none" stroke="black" d="M1063.18,-379.727C1044.9,-329.876 1008.26,-229.964 987.815,-174.216"/>
<polygon fill="black" stroke="black" points="991.044,-172.856 984.315,-164.673 984.472,-175.266 991.044,-172.856"/>
</g>
<!-- github.com/kr/\npretty -->
<g id="node3" class="node"><title>github.com/kr/\npretty</title>
<text text-anchor="middle" x="683.892" y="-334.205" font-family="Helvetica,sans-Serif" font-size="24.00">github.com/kr/</text>
<text text-anchor="middle" x="683.892" y="-308.205" font-family="Helvetica,sans-Serif" font-size="24.00">pretty</text>
</g>
<!-- github.com/go&#45;modules&#45;by&#45;example&#45;staging/\nlistmodwhygraph&#45;&gt;github.com/kr/\npretty -->
<g id="edge2" class="edge"><title>github.com/go&#45;modules&#45;by&#45;example&#45;staging/\nlistmodwhygraph&#45;&gt;github.com/kr/\npretty</title>
<path fill="none" stroke="black" d="M931.899,-379.717C885.21,-369.869 834.156,-359.1 790.57,-349.907"/>
<polygon fill="black" stroke="black" points="791.033,-346.427 780.526,-347.788 789.589,-353.277 791.033,-346.427"/>
</g>
<!-- github.com/sirupsen/\nlogrus -->
<g id="node4" class="node"><title>github.com/sirupsen/\nlogrus</title>
<text text-anchor="middle" x="1555.64" y="-376.342" font-family="Helvetica,sans-Serif" font-size="24.00">github.com/sirupsen/</text>
<text text-anchor="middle" x="1555.64" y="-350.342" font-family="Helvetica,sans-Serif" font-size="24.00">logrus</text>
</g>
<!-- github.com/go&#45;modules&#45;by&#45;example&#45;staging/\nlistmodwhygraph&#45;&gt;github.com/sirupsen/\nlogrus -->
<g id="edge3" class="edge"><title>github.com/go&#45;modules&#45;by&#45;example&#45;staging/\nlistmodwhygraph&#45;&gt;github.com/sirupsen/\nlogrus</title>
<path fill="none" stroke="black" d="M1354.25,-386.352C1373.19,-384.771 1391.79,-383.218 1409.57,-381.734"/>
<polygon fill="black" stroke="black" points="1410.27,-385.188 1419.94,-380.868 1409.69,-378.212 1410.27,-385.188"/>
</g>
<!-- golang.org/x/tools -->
<g id="node5" class="node"><title>golang.org/x/tools</title>
<text text-anchor="middle" x="984.162" y="-754.436" font-family="Helvetica,sans-Serif" font-size="24.00">golang.org/x/tools</text>
</g>
<!-- github.com/go&#45;modules&#45;by&#45;example&#45;staging/\nlistmodwhygraph&#45;&gt;golang.org/x/tools -->
<g id="edge4" class="edge"><title>github.com/go&#45;modules&#45;by&#45;example&#45;staging/\nlistmodwhygraph&#45;&gt;golang.org/x/tools</title>
<path fill="none" stroke="black" d="M1066.43,-439.95C1049.22,-507.036 1008.03,-667.58 991.357,-732.591"/>
<polygon fill="black" stroke="black" points="987.902,-731.971 988.808,-742.527 994.683,-733.711 987.902,-731.971"/>
</g>
<!-- github.com/kr/\ntext -->
<g id="node6" class="node"><title>github.com/kr/\ntext</title>
<text text-anchor="middle" x="362.823" y="-238.261" font-family="Helvetica,sans-Serif" font-size="24.00">github.com/kr/</text>
<text text-anchor="middle" x="362.823" y="-212.261" font-family="Helvetica,sans-Serif" font-size="24.00">text</text>
</g>
<!-- github.com/kr/\npretty&#45;&gt;github.com/kr/\ntext -->
<g id="edge5" class="edge"><title>github.com/kr/\npretty&#45;&gt;github.com/kr/\ntext</title>
<path fill="none" stroke="black" d="M587.125,-298.489C549.848,-287.349 507.093,-274.573 468.976,-263.183"/>
<polygon fill="black" stroke="black" points="469.975,-259.828 459.391,-260.319 467.97,-266.535 469.975,-259.828"/>
</g>
<!-- github.com/davecgh/\ngo&#45;spew -->
<g id="node8" class="node"><title>github.com/davecgh/\ngo&#45;spew</title>
<text text-anchor="middle" x="1840.82" y="-180.522" font-family="Helvetica,sans-Serif" font-size="24.00">github.com/davecgh/</text>
<text text-anchor="middle" x="1840.82" y="-154.522" font-family="Helvetica,sans-Serif" font-size="24.00">go&#45;spew</text>
</g>
<!-- github.com/sirupsen/\nlogrus&#45;&gt;github.com/davecgh/\ngo&#45;spew -->
<g id="edge7" class="edge"><title>github.com/sirupsen/\nlogrus&#45;&gt;github.com/davecgh/\ngo&#45;spew</title>
<path fill="none" stroke="black" d="M1599.58,-339.374C1650.45,-304.445 1734.17,-246.954 1788.4,-209.719"/>
<polygon fill="black" stroke="black" points="1790.58,-212.47 1796.84,-203.924 1786.61,-206.699 1790.58,-212.47"/>
</g>
<!-- github.com/konsorten/\ngo&#45;windows&#45;terminal&#45;sequences -->
<g id="node9" class="node"><title>github.com/konsorten/\ngo&#45;windows&#45;terminal&#45;sequences</title>
<text text-anchor="middle" x="1902.68" y="-420.006" font-family="Helvetica,sans-Serif" font-size="24.00">github.com/konsorten/</text>
<text text-anchor="middle" x="1902.68" y="-394.006" font-family="Helvetica,sans-Serif" font-size="24.00">go&#45;windows&#45;terminal&#45;sequences</text>
</g>
<!-- github.com/sirupsen/\nlogrus&#45;&gt;github.com/konsorten/\ngo&#45;windows&#45;terminal&#45;sequences -->
<g id="edge8" class="edge"><title>github.com/sirupsen/\nlogrus&#45;&gt;github.com/konsorten/\ngo&#45;windows&#45;terminal&#45;sequences</title>
<path fill="none" stroke="black" d="M1691.31,-386.611C1691.47,-386.631 1691.63,-386.651 1691.79,-386.672"/>
<polygon fill="black" stroke="black" points="1688.68,-389.808 1699.04,-387.584 1689.55,-382.863 1688.68,-389.808"/>
</g>
<!-- github.com/pmezard/\ngo&#45;difflib -->
<g id="node10" class="node"><title>github.com/pmezard/\ngo&#45;difflib</title>
<text text-anchor="middle" x="1636.45" y="-36.8" font-family="Helvetica,sans-Serif" font-size="24.00">github.com/pmezard/</text>
<text text-anchor="middle" x="1636.45" y="-10.8" font-family="Helvetica,sans-Serif" font-size="24.00">go&#45;difflib</text>
</g>
<!-- github.com/sirupsen/\nlogrus&#45;&gt;github.com/pmezard/\ngo&#45;difflib -->
<g id="edge9" class="edge"><title>github.com/sirupsen/\nlogrus&#45;&gt;github.com/pmezard/\ngo&#45;difflib</title>
<path fill="none" stroke="black" d="M1562.81,-339.41C1577.4,-278.122 1610.52,-138.934 1626.91,-70.0905"/>
<polygon fill="black" stroke="black" points="1630.38,-70.6032 1629.29,-60.0645 1623.57,-68.9825 1630.38,-70.6032"/>
</g>
<!-- github.com/stretchr/\nobjx -->
<g id="node11" class="node"><title>github.com/stretchr/\nobjx</title>
<text text-anchor="middle" x="1399.48" y="-136.177" font-family="Helvetica,sans-Serif" font-size="24.00">github.com/stretchr/</text>
<text text-anchor="middle" x="1399.48" y="-110.177" font-family="Helvetica,sans-Serif" font-size="24.00">objx</text>
</g>
<!-- github.com/sirupsen/\nlogrus&#45;&gt;github.com/stretchr/\nobjx -->
<g id="edge10" class="edge"><title>github.com/sirupsen/\nlogrus&#45;&gt;github.com/stretchr/\nobjx</title>
<path fill="none" stroke="black" d="M1535.86,-339.125C1507.59,-295.635 1455.6,-215.689 1424.63,-168.05"/>
<polygon fill="black" stroke="black" points="1427.48,-166.022 1419.1,-159.547 1421.61,-169.838 1427.48,-166.022"/>
</g>
<!-- github.com/stretchr/\ntestify -->
<g id="node12" class="node"><title>github.com/stretchr/\ntestify</title>
<text text-anchor="middle" x="1756.93" y="-623.026" font-family="Helvetica,sans-Serif" font-size="24.00">github.com/stretchr/</text>
<text text-anchor="middle" x="1756.93" y="-597.026" font-family="Helvetica,sans-Serif" font-size="24.00">testify</text>
</g>
<!-- github.com/sirupsen/\nlogrus&#45;&gt;github.com/stretchr/\ntestify -->
<g id="edge11" class="edge"><title>github.com/sirupsen/\nlogrus&#45;&gt;github.com/stretchr/\ntestify</title>
<path fill="none" stroke="black" d="M1580.32,-399.79C1617.02,-444.761 1685.92,-529.204 1725.96,-578.265"/>
<polygon fill="black" stroke="black" points="1723.33,-580.581 1732.36,-586.116 1728.75,-576.156 1723.33,-580.581"/>
</g>
<!-- golang.org/x/sys -->
<g id="node13" class="node"><title>golang.org/x/sys</title>
<text text-anchor="middle" x="1467.2" y="-724.548" font-family="Helvetica,sans-Serif" font-size="24.00">golang.org/x/sys</text>
</g>
<!-- github.com/sirupsen/\nlogrus&#45;&gt;golang.org/x/sys -->
<g id="edge12" class="edge"><title>github.com/sirupsen/\nlogrus&#45;&gt;golang.org/x/sys</title>
<path fill="none" stroke="black" d="M1548.25,-399.717C1531.43,-468.44 1490.45,-635.808 1474.1,-702.572"/>
<polygon fill="black" stroke="black" points="1470.68,-701.848 1471.7,-712.393 1477.48,-703.512 1470.68,-701.848"/>
</g>
<!-- golang.org/x/net -->
<g id="node15" class="node"><title>golang.org/x/net</title>
<text text-anchor="middle" x="1036.77" y="-1082.17" font-family="Helvetica,sans-Serif" font-size="24.00">golang.org/x/net</text>
</g>
<!-- golang.org/x/tools&#45;&gt;golang.org/x/net -->
<g id="edge16" class="edge"><title>golang.org/x/tools&#45;&gt;golang.org/x/net</title>
<path fill="none" stroke="black" d="M987.065,-778.724C995.778,-833.001 1021.75,-994.77 1032.27,-1060.32"/>
<polygon fill="black" stroke="black" points="1028.84,-1061.02 1033.88,-1070.34 1035.75,-1059.91 1028.84,-1061.02"/>
</g>
<!-- github.com/kr/\npty -->
<g id="node7" class="node"><title>github.com/kr/\npty</title>
<text text-anchor="middle" x="96.5" y="-153.203" font-family="Helvetica,sans-Serif" font-size="24.00">github.com/kr/</text>
<text text-anchor="middle" x="96.5" y="-127.203" font-family="Helvetica,sans-Serif" font-size="24.00">pty</text>
</g>
<!-- github.com/kr/\ntext&#45;&gt;github.com/kr/\npty -->
<g id="edge6" class="edge"><title>github.com/kr/\ntext&#45;&gt;github.com/kr/\npty</title>
<path fill="none" stroke="black" d="M268.552,-201.353C246.425,-194.286 222.728,-186.718 200.212,-179.527"/>
<polygon fill="black" stroke="black" points="201.234,-176.179 190.644,-176.471 199.105,-182.847 201.234,-176.179"/>
</g>
<!-- golang.org/x/crypto -->
<g id="node14" class="node"><title>golang.org/x/crypto</title>
<text text-anchor="middle" x="1322.96" y="-1010.2" font-family="Helvetica,sans-Serif" font-size="24.00">golang.org/x/crypto</text>
</g>
<!-- golang.org/x/crypto&#45;&gt;golang.org/x/sys -->
<g id="edge13" class="edge"><title>golang.org/x/crypto&#45;&gt;golang.org/x/sys</title>
<path fill="none" stroke="black" d="M1332.2,-998.097C1356.83,-949.324 1424.15,-816.014 1453.36,-758.153"/>
<polygon fill="black" stroke="black" points="1456.65,-759.403 1458.04,-748.899 1450.41,-756.248 1456.65,-759.403"/>
</g>
<!-- golang.org/x/net&#45;&gt;golang.org/x/crypto -->
<g id="edge14" class="edge"><title>golang.org/x/net&#45;&gt;golang.org/x/crypto</title>
<path fill="none" stroke="black" d="M1108.62,-1070.3C1148.93,-1060.16 1199.38,-1047.48 1241.2,-1036.96"/>
<polygon fill="black" stroke="black" points="1242.24,-1040.31 1251.08,-1034.48 1240.53,-1033.52 1242.24,-1040.31"/>
</g>
<!-- golang.org/x/text -->
<g id="node16" class="node"><title>golang.org/x/text</title>
<text text-anchor="middle" x="921.492" y="-1354.6" font-family="Helvetica,sans-Serif" font-size="24.00">golang.org/x/text</text>
</g>
<!-- golang.org/x/net&#45;&gt;golang.org/x/text -->
<g id="edge15" class="edge"><title>golang.org/x/net&#45;&gt;golang.org/x/text</title>
<path fill="none" stroke="black" d="M1029.03,-1106.66C1009.22,-1153.48 956.599,-1277.83 933.104,-1333.36"/>
<polygon fill="black" stroke="black" points="929.875,-1332.01 929.201,-1342.58 936.321,-1334.73 929.875,-1332.01"/>
</g>
</g>
</svg>
